<mxfile host="Electron" agent="Mozilla/5.0 (Windows NT 10.0; Win64; x64) AppleWebKit/537.36 (KHTML, like Gecko) draw.io/24.7.17 Chrome/128.0.6613.36 Electron/32.0.1 Safari/537.36" version="24.7.17">
  <diagram name="Page-1" id="7kJY-D1wnbRMmSLvOsFZ">
    <mxGraphModel dx="1480" dy="866" grid="1" gridSize="10" guides="1" tooltips="1" connect="1" arrows="1" fold="1" page="1" pageScale="1" pageWidth="850" pageHeight="1100" math="0" shadow="0">
      <root>
        <mxCell id="0" />
        <mxCell id="1" parent="0" />
        <mxCell id="IyWoWXMA88X-UI1_IplW-1" value="Supplier Management Activity" style="swimlane;childLayout=stackLayout;resizeParent=1;resizeParentMax=0;startSize=20;html=1;" vertex="1" parent="1">
          <mxGeometry x="170" y="40" width="740" height="970" as="geometry" />
        </mxCell>
        <mxCell id="IyWoWXMA88X-UI1_IplW-11" value="" style="endArrow=classic;html=1;rounded=0;exitX=1;exitY=0.5;exitDx=0;exitDy=0;entryX=0.519;entryY=0.02;entryDx=0;entryDy=0;entryPerimeter=0;" edge="1" parent="IyWoWXMA88X-UI1_IplW-1" source="IyWoWXMA88X-UI1_IplW-8" target="IyWoWXMA88X-UI1_IplW-10">
          <mxGeometry width="50" height="50" relative="1" as="geometry">
            <mxPoint x="260" y="350" as="sourcePoint" />
            <mxPoint x="310" y="300" as="targetPoint" />
            <Array as="points">
              <mxPoint x="548" y="255" />
            </Array>
          </mxGeometry>
        </mxCell>
        <mxCell id="IyWoWXMA88X-UI1_IplW-13" value="" style="endArrow=classic;html=1;rounded=0;exitX=-0.009;exitY=0.516;exitDx=0;exitDy=0;exitPerimeter=0;entryX=0.5;entryY=0;entryDx=0;entryDy=0;" edge="1" parent="IyWoWXMA88X-UI1_IplW-1" source="IyWoWXMA88X-UI1_IplW-10" target="IyWoWXMA88X-UI1_IplW-12">
          <mxGeometry width="50" height="50" relative="1" as="geometry">
            <mxPoint x="210" y="400" as="sourcePoint" />
            <mxPoint x="260" y="350" as="targetPoint" />
            <Array as="points">
              <mxPoint x="180" y="350" />
            </Array>
          </mxGeometry>
        </mxCell>
        <mxCell id="IyWoWXMA88X-UI1_IplW-16" value="" style="endArrow=classic;html=1;rounded=0;exitX=0.49;exitY=1.011;exitDx=0;exitDy=0;exitPerimeter=0;entryX=1;entryY=0.5;entryDx=0;entryDy=0;" edge="1" parent="IyWoWXMA88X-UI1_IplW-1" source="IyWoWXMA88X-UI1_IplW-10" target="IyWoWXMA88X-UI1_IplW-15">
          <mxGeometry width="50" height="50" relative="1" as="geometry">
            <mxPoint x="200" y="430" as="sourcePoint" />
            <mxPoint x="250" y="380" as="targetPoint" />
            <Array as="points">
              <mxPoint x="544" y="430" />
            </Array>
          </mxGeometry>
        </mxCell>
        <mxCell id="IyWoWXMA88X-UI1_IplW-24" value="" style="endArrow=classic;html=1;rounded=0;entryX=0.496;entryY=0.031;entryDx=0;entryDy=0;entryPerimeter=0;" edge="1" parent="IyWoWXMA88X-UI1_IplW-1" source="IyWoWXMA88X-UI1_IplW-19" target="IyWoWXMA88X-UI1_IplW-23">
          <mxGeometry width="50" height="50" relative="1" as="geometry">
            <mxPoint x="160" y="640" as="sourcePoint" />
            <mxPoint x="210" y="590" as="targetPoint" />
            <Array as="points">
              <mxPoint x="265" y="520" />
              <mxPoint x="598" y="520" />
            </Array>
          </mxGeometry>
        </mxCell>
        <mxCell id="IyWoWXMA88X-UI1_IplW-2" value="Admin/ Owner" style="swimlane;startSize=20;html=1;" vertex="1" parent="IyWoWXMA88X-UI1_IplW-1">
          <mxGeometry y="20" width="430" height="950" as="geometry" />
        </mxCell>
        <mxCell id="IyWoWXMA88X-UI1_IplW-5" value="" style="strokeWidth=2;html=1;shape=mxgraph.flowchart.start_2;whiteSpace=wrap;fillColor=#000000;" vertex="1" parent="IyWoWXMA88X-UI1_IplW-2">
          <mxGeometry x="220" y="20" width="30" height="30" as="geometry" />
        </mxCell>
        <mxCell id="IyWoWXMA88X-UI1_IplW-6" value="logs in to the system" style="rounded=1;whiteSpace=wrap;html=1;" vertex="1" parent="IyWoWXMA88X-UI1_IplW-2">
          <mxGeometry x="175" y="90" width="120" height="50" as="geometry" />
        </mxCell>
        <mxCell id="IyWoWXMA88X-UI1_IplW-7" value="" style="endArrow=classic;html=1;rounded=0;exitX=0.5;exitY=1;exitDx=0;exitDy=0;exitPerimeter=0;" edge="1" parent="IyWoWXMA88X-UI1_IplW-2" source="IyWoWXMA88X-UI1_IplW-5" target="IyWoWXMA88X-UI1_IplW-6">
          <mxGeometry width="50" height="50" relative="1" as="geometry">
            <mxPoint x="260" y="230" as="sourcePoint" />
            <mxPoint x="310" y="180" as="targetPoint" />
          </mxGeometry>
        </mxCell>
        <mxCell id="IyWoWXMA88X-UI1_IplW-8" value="Add or Update Supplier Details" style="rounded=1;whiteSpace=wrap;html=1;" vertex="1" parent="IyWoWXMA88X-UI1_IplW-2">
          <mxGeometry x="175" y="210" width="120" height="50" as="geometry" />
        </mxCell>
        <mxCell id="IyWoWXMA88X-UI1_IplW-9" value="" style="endArrow=classic;html=1;rounded=0;exitX=0.5;exitY=1;exitDx=0;exitDy=0;entryX=0.5;entryY=0;entryDx=0;entryDy=0;" edge="1" parent="IyWoWXMA88X-UI1_IplW-2" source="IyWoWXMA88X-UI1_IplW-6" target="IyWoWXMA88X-UI1_IplW-8">
          <mxGeometry width="50" height="50" relative="1" as="geometry">
            <mxPoint x="260" y="230" as="sourcePoint" />
            <mxPoint x="310" y="180" as="targetPoint" />
          </mxGeometry>
        </mxCell>
        <mxCell id="IyWoWXMA88X-UI1_IplW-12" value="Update supplier data." style="rounded=1;whiteSpace=wrap;html=1;" vertex="1" parent="IyWoWXMA88X-UI1_IplW-2">
          <mxGeometry x="120" y="390" width="120" height="40" as="geometry" />
        </mxCell>
        <mxCell id="IyWoWXMA88X-UI1_IplW-15" value="Register the new supplier" style="rounded=1;whiteSpace=wrap;html=1;" vertex="1" parent="IyWoWXMA88X-UI1_IplW-2">
          <mxGeometry x="280" y="390" width="120" height="40" as="geometry" />
        </mxCell>
        <mxCell id="IyWoWXMA88X-UI1_IplW-19" value="" style="line;strokeWidth=8;html=1;" vertex="1" parent="IyWoWXMA88X-UI1_IplW-2">
          <mxGeometry x="185" y="470" width="160" height="10" as="geometry" />
        </mxCell>
        <mxCell id="IyWoWXMA88X-UI1_IplW-20" value="" style="endArrow=classic;html=1;rounded=0;exitX=0.75;exitY=1;exitDx=0;exitDy=0;" edge="1" parent="IyWoWXMA88X-UI1_IplW-2" source="IyWoWXMA88X-UI1_IplW-12">
          <mxGeometry width="50" height="50" relative="1" as="geometry">
            <mxPoint x="170" y="470" as="sourcePoint" />
            <mxPoint x="210" y="470" as="targetPoint" />
          </mxGeometry>
        </mxCell>
        <mxCell id="IyWoWXMA88X-UI1_IplW-21" value="" style="endArrow=classic;html=1;rounded=0;exitX=0.365;exitY=0.993;exitDx=0;exitDy=0;entryX=0.865;entryY=0.288;entryDx=0;entryDy=0;entryPerimeter=0;exitPerimeter=0;" edge="1" parent="IyWoWXMA88X-UI1_IplW-2" source="IyWoWXMA88X-UI1_IplW-15" target="IyWoWXMA88X-UI1_IplW-19">
          <mxGeometry width="50" height="50" relative="1" as="geometry">
            <mxPoint x="170" y="470" as="sourcePoint" />
            <mxPoint x="260" y="470" as="targetPoint" />
          </mxGeometry>
        </mxCell>
        <mxCell id="IyWoWXMA88X-UI1_IplW-31" value="" style="endArrow=classic;html=1;rounded=0;exitX=0;exitY=0.5;exitDx=0;exitDy=0;entryX=-0.006;entryY=0.623;entryDx=0;entryDy=0;entryPerimeter=0;" edge="1" parent="IyWoWXMA88X-UI1_IplW-1" source="IyWoWXMA88X-UI1_IplW-22" target="IyWoWXMA88X-UI1_IplW-8">
          <mxGeometry width="50" height="50" relative="1" as="geometry">
            <mxPoint x="260" y="470" as="sourcePoint" />
            <mxPoint x="-80" y="280" as="targetPoint" />
            <Array as="points">
              <mxPoint x="20" y="680" />
              <mxPoint x="20" y="260" />
            </Array>
          </mxGeometry>
        </mxCell>
        <mxCell id="IyWoWXMA88X-UI1_IplW-3" value="System" style="swimlane;startSize=20;html=1;" vertex="1" parent="IyWoWXMA88X-UI1_IplW-1">
          <mxGeometry x="430" y="20" width="310" height="950" as="geometry" />
        </mxCell>
        <mxCell id="IyWoWXMA88X-UI1_IplW-10" value="Is the supplier&amp;nbsp;&lt;div&gt;already registered?&lt;/div&gt;" style="html=1;whiteSpace=wrap;aspect=fixed;shape=isoRectangle;" vertex="1" parent="IyWoWXMA88X-UI1_IplW-3">
          <mxGeometry x="48.34000000000003" y="285" width="133.33" height="80" as="geometry" />
        </mxCell>
        <mxCell id="IyWoWXMA88X-UI1_IplW-14" value="Yes" style="text;html=1;align=center;verticalAlign=middle;whiteSpace=wrap;rounded=0;" vertex="1" parent="IyWoWXMA88X-UI1_IplW-3">
          <mxGeometry y="300" width="60" height="30" as="geometry" />
        </mxCell>
        <mxCell id="IyWoWXMA88X-UI1_IplW-17" value="No" style="text;html=1;align=center;verticalAlign=middle;whiteSpace=wrap;rounded=0;" vertex="1" parent="IyWoWXMA88X-UI1_IplW-3">
          <mxGeometry x="100" y="370" width="60" height="30" as="geometry" />
        </mxCell>
        <mxCell id="IyWoWXMA88X-UI1_IplW-23" value="Is the data&amp;nbsp;&lt;div&gt;validation successful?&lt;/div&gt;" style="html=1;whiteSpace=wrap;aspect=fixed;shape=isoRectangle;" vertex="1" parent="IyWoWXMA88X-UI1_IplW-3">
          <mxGeometry x="110" y="530" width="116.67" height="70" as="geometry" />
        </mxCell>
        <mxCell id="IyWoWXMA88X-UI1_IplW-22" value="&lt;div&gt;display an error&lt;br&gt;&lt;/div&gt;" style="rounded=1;whiteSpace=wrap;html=1;" vertex="1" parent="IyWoWXMA88X-UI1_IplW-3">
          <mxGeometry x="10" y="640" width="110" height="40" as="geometry" />
        </mxCell>
        <mxCell id="IyWoWXMA88X-UI1_IplW-25" value="store in the system" style="rounded=1;whiteSpace=wrap;html=1;" vertex="1" parent="IyWoWXMA88X-UI1_IplW-3">
          <mxGeometry x="190" y="640" width="111.67" height="40" as="geometry" />
        </mxCell>
        <mxCell id="IyWoWXMA88X-UI1_IplW-26" value="" style="endArrow=classic;html=1;rounded=0;exitX=-0.007;exitY=0.504;exitDx=0;exitDy=0;exitPerimeter=0;entryX=0.5;entryY=0;entryDx=0;entryDy=0;" edge="1" parent="IyWoWXMA88X-UI1_IplW-3" source="IyWoWXMA88X-UI1_IplW-23" target="IyWoWXMA88X-UI1_IplW-22">
          <mxGeometry width="50" height="50" relative="1" as="geometry">
            <mxPoint x="20" y="680" as="sourcePoint" />
            <mxPoint x="70" y="630" as="targetPoint" />
            <Array as="points">
              <mxPoint x="65" y="565" />
            </Array>
          </mxGeometry>
        </mxCell>
        <mxCell id="IyWoWXMA88X-UI1_IplW-27" value="" style="endArrow=classic;html=1;rounded=0;exitX=1;exitY=0.489;exitDx=0;exitDy=0;exitPerimeter=0;entryX=0.672;entryY=-0.072;entryDx=0;entryDy=0;entryPerimeter=0;" edge="1" parent="IyWoWXMA88X-UI1_IplW-3" source="IyWoWXMA88X-UI1_IplW-23" target="IyWoWXMA88X-UI1_IplW-25">
          <mxGeometry width="50" height="50" relative="1" as="geometry">
            <mxPoint x="10" y="680" as="sourcePoint" />
            <mxPoint x="60" y="630" as="targetPoint" />
            <Array as="points">
              <mxPoint x="265" y="564" />
            </Array>
          </mxGeometry>
        </mxCell>
        <mxCell id="IyWoWXMA88X-UI1_IplW-29" value="No" style="text;html=1;align=center;verticalAlign=middle;whiteSpace=wrap;rounded=0;" vertex="1" parent="IyWoWXMA88X-UI1_IplW-3">
          <mxGeometry x="50" y="540" width="60" height="30" as="geometry" />
        </mxCell>
        <mxCell id="IyWoWXMA88X-UI1_IplW-30" value="Yes" style="text;html=1;align=center;verticalAlign=middle;whiteSpace=wrap;rounded=0;" vertex="1" parent="IyWoWXMA88X-UI1_IplW-3">
          <mxGeometry x="215.84000000000003" y="540" width="60" height="30" as="geometry" />
        </mxCell>
        <mxCell id="IyWoWXMA88X-UI1_IplW-32" value="Update Supplier Details" style="rounded=1;whiteSpace=wrap;html=1;" vertex="1" parent="IyWoWXMA88X-UI1_IplW-3">
          <mxGeometry x="90" y="780" width="120" height="60" as="geometry" />
        </mxCell>
        <mxCell id="IyWoWXMA88X-UI1_IplW-33" value="" style="endArrow=classic;html=1;rounded=0;exitX=0.5;exitY=1;exitDx=0;exitDy=0;entryX=0.417;entryY=0;entryDx=0;entryDy=0;entryPerimeter=0;" edge="1" parent="IyWoWXMA88X-UI1_IplW-3" source="IyWoWXMA88X-UI1_IplW-25" target="IyWoWXMA88X-UI1_IplW-32">
          <mxGeometry width="50" height="50" relative="1" as="geometry">
            <mxPoint x="-90" y="780" as="sourcePoint" />
            <mxPoint x="-40" y="730" as="targetPoint" />
            <Array as="points">
              <mxPoint x="246" y="730" />
              <mxPoint x="140" y="730" />
            </Array>
          </mxGeometry>
        </mxCell>
        <mxCell id="IyWoWXMA88X-UI1_IplW-34" value="" style="ellipse;html=1;shape=endState;fillColor=#000000;strokeColor=#000000;" vertex="1" parent="IyWoWXMA88X-UI1_IplW-3">
          <mxGeometry x="130" y="900" width="30" height="30" as="geometry" />
        </mxCell>
        <mxCell id="IyWoWXMA88X-UI1_IplW-35" value="" style="endArrow=classic;html=1;rounded=0;exitX=0.461;exitY=1.019;exitDx=0;exitDy=0;exitPerimeter=0;entryX=0.5;entryY=0;entryDx=0;entryDy=0;" edge="1" parent="IyWoWXMA88X-UI1_IplW-3" source="IyWoWXMA88X-UI1_IplW-32" target="IyWoWXMA88X-UI1_IplW-34">
          <mxGeometry width="50" height="50" relative="1" as="geometry">
            <mxPoint x="10" y="890" as="sourcePoint" />
            <mxPoint x="60" y="840" as="targetPoint" />
          </mxGeometry>
        </mxCell>
      </root>
    </mxGraphModel>
  </diagram>
</mxfile>
